<svg width="205" height="73" viewBox="0 0 205 73" fill="none" xmlns="http://www.w3.org/2000/svg">
<path d="M56.4834 2.5L56.8271 4.59473L60.2666 25.5547L60.7441 28.46H55.9082L55.1992 27.1465C52.7498 22.605 49.9249 18.8894 46.7451 15.958L46.7158 15.9307C43.7021 13.0604 40.7443 11.8203 37.7998 11.8203C35.7351 11.8204 33.8554 12.4847 32.0879 13.9072L32.082 13.9121C30.4332 15.2312 28.9429 17.4344 27.7578 20.792L27.7539 20.8027C26.6022 24.018 25.9805 28.1905 25.9805 33.4004C25.9805 40.2004 26.7863 45.952 28.3369 50.7041C29.9271 55.5773 31.832 59.041 33.9424 61.2891C36.1429 63.6331 37.9837 64.4199 39.4805 64.4199C40.283 64.4199 40.7285 64.2621 40.9707 64.1182C41.3816 63.8175 41.89 63.3791 42.5 62.7783V47.0234L36.96 45.8457L34.9805 45.4238V40.5H67.8203V45.1396L66.1885 45.7441L63.5 46.7393V58.7402H67.0996V63.3252L65.5371 63.958C60.7072 65.9116 56.0991 67.4673 51.7148 68.6182L51.7002 68.6221L51.6865 68.625C47.2087 69.7444 42.5237 70.2998 37.6396 70.2998C30.4826 70.2998 24.2021 69.0796 18.8818 66.5352L18.8721 66.5303C13.6188 63.9902 9.52767 60.3654 6.69629 55.6465L6.68945 55.6348C3.86892 50.8751 2.50003 45.3815 2.5 39.2402C2.5 32.6598 4.00746 26.7831 7.10449 21.6992C10.1918 16.6314 14.5344 12.7397 20.0605 10.0342C25.5787 7.27919 31.8871 5.94044 38.9199 5.94043C42.3579 5.94043 46.4354 6.34423 51.1299 7.12793L51.4854 4.64648L51.792 2.5H56.4834Z" fill="#DCFF82" stroke="#DA2795" stroke-width="5"/>
<path d="M92.4 53.2C89.7 53.2 87.1667 52.9167 84.8 52.35C82.4333 51.7833 80.4 50.9333 78.7 49.8L82.5 42.1C83.5667 42.9333 84.9167 43.5833 86.55 44.05C88.2167 44.55 89.7833 44.8 91.25 44.8C93.5833 44.8 95.25 44.3 96.25 43.3C97.25 42.3333 97.75 40.9333 97.75 39.1V36.8L98.25 28.3L98.3 19.8V15.65H109.05V37.55C109.05 42.85 107.583 46.7833 104.65 49.35C101.717 51.9167 97.6333 53.2 92.4 53.2ZM90.2 41.5C87.9 41.5 85.75 40.9667 83.75 39.9C81.75 38.8 80.1333 37.2667 78.9 35.3C77.6667 33.3333 77.05 31 77.05 28.3C77.05 25.6 77.6667 23.2667 78.9 21.3C80.1333 19.3333 81.75 17.8167 83.75 16.75C85.75 15.6833 87.9 15.15 90.2 15.15C92.5667 15.15 94.5 15.6167 96 16.55C97.5333 17.4833 98.6667 18.9333 99.4 20.9C100.133 22.8333 100.5 25.3 100.5 28.3C100.5 31.3 100.133 33.7833 99.4 35.75C98.6667 37.6833 97.5333 39.1333 96 40.1C94.5 41.0333 92.5667 41.5 90.2 41.5ZM93.2 32.7C94.1 32.7 94.9 32.5167 95.6 32.15C96.3 31.7833 96.85 31.2667 97.25 30.6C97.65 29.9333 97.85 29.1667 97.85 28.3C97.85 27.4 97.65 26.6333 97.25 26C96.85 25.3333 96.3 24.8333 95.6 24.5C94.9 24.1333 94.1 23.95 93.2 23.95C92.3333 23.95 91.5333 24.1333 90.8 24.5C90.1 24.8333 89.5333 25.3333 89.1 26C88.7 26.6333 88.5 27.4 88.5 28.3C88.5 29.1667 88.7 29.9333 89.1 30.6C89.5333 31.2667 90.1 31.7833 90.8 32.15C91.5333 32.5167 92.3333 32.7 93.2 32.7Z" fill="#DA2795"/>
<path d="M111.547 43V15.65H122.847V43H111.547ZM117.197 13.45C115.13 13.45 113.48 12.9 112.247 11.8C111.014 10.7 110.397 9.33333 110.397 7.7C110.397 6.06666 111.014 4.7 112.247 3.6C113.48 2.5 115.13 1.95 117.197 1.95C119.264 1.95 120.914 2.46666 122.147 3.5C123.38 4.53333 123.997 5.86666 123.997 7.5C123.997 9.23333 123.38 10.6667 122.147 11.8C120.914 12.9 119.264 13.45 117.197 13.45Z" fill="#DA2795"/>
<path d="M126.605 43V17C126.605 13.4667 127.655 10.65 129.755 8.55C131.889 6.45 134.905 5.4 138.805 5.4C140.005 5.4 141.205 5.51666 142.405 5.75C143.639 5.95 144.672 6.28333 145.505 6.75L142.805 14.6C142.439 14.4333 142.039 14.2833 141.605 14.15C141.172 14.0167 140.722 13.95 140.255 13.95C139.455 13.95 138.805 14.2 138.305 14.7C137.805 15.2 137.555 16 137.555 17.1V18.4L137.905 23.05V43H126.605ZM122.855 25.4V17.15H143.505V25.4H122.855Z" fill="#DA2795"/>
<path d="M157.345 43.5C153.578 43.5 150.645 42.6 148.545 40.8C146.445 38.9667 145.395 36.1667 145.395 32.4V9.5H156.695V32.3C156.695 33.1333 156.911 33.7833 157.345 34.25C157.811 34.7167 158.378 34.95 159.045 34.95C160.011 34.95 160.861 34.7 161.595 34.2L164.295 42.05C163.428 42.55 162.378 42.9167 161.145 43.15C159.945 43.3833 158.678 43.5 157.345 43.5ZM141.645 23.9V15.65H162.295V23.9H141.645Z" fill="#DA2795"/>
<path d="M177.354 43.5C173.588 43.5 170.654 42.6 168.554 40.8C166.454 38.9667 165.404 36.1667 165.404 32.4V9.5H176.704V32.3C176.704 33.1333 176.921 33.7833 177.354 34.25C177.821 34.7167 178.388 34.95 179.054 34.95C180.021 34.95 180.871 34.7 181.604 34.2L184.304 42.05C183.438 42.55 182.388 42.9167 181.154 43.15C179.954 43.3833 178.688 43.5 177.354 43.5ZM161.654 23.9V15.65H182.304V23.9H161.654Z" fill="#DA2795"/>
<path d="M197.364 43.5C193.597 43.5 190.664 42.6 188.564 40.8C186.464 38.9667 185.414 36.1667 185.414 32.4V9.5H196.714V32.3C196.714 33.1333 196.931 33.7833 197.364 34.25C197.831 34.7167 198.397 34.95 199.064 34.95C200.031 34.95 200.881 34.7 201.614 34.2L204.314 42.05C203.447 42.55 202.397 42.9167 201.164 43.15C199.964 43.3833 198.697 43.5 197.364 43.5ZM181.664 23.9V15.65H202.314V23.9H181.664Z" fill="#DA2795"/>
<path d="M103.807 62V56.23C103.807 55.71 103.957 55.2967 104.257 54.99C104.563 54.6767 104.997 54.52 105.557 54.52C105.763 54.52 105.96 54.5467 106.147 54.6C106.34 54.6467 106.503 54.7233 106.637 54.83L106.347 55.56C106.247 55.48 106.133 55.42 106.007 55.38C105.88 55.3333 105.747 55.31 105.607 55.31C105.327 55.31 105.113 55.39 104.967 55.55C104.82 55.7033 104.747 55.9333 104.747 56.24V56.95L104.767 57.39V62H103.807ZM102.907 57.49V56.7H106.287V57.49H102.907Z" fill="#DA2795"/>
<path d="M107.992 62V56.7H108.912V58.14L108.822 57.78C108.969 57.4133 109.215 57.1333 109.562 56.94C109.909 56.7467 110.335 56.65 110.842 56.65V57.58C110.802 57.5733 110.762 57.57 110.722 57.57C110.689 57.57 110.655 57.57 110.622 57.57C110.109 57.57 109.702 57.7233 109.402 58.03C109.102 58.3367 108.952 58.78 108.952 59.36V62H107.992Z" fill="#DA2795"/>
<path d="M115.046 62.06C114.513 62.06 114.04 61.9433 113.626 61.71C113.213 61.4767 112.886 61.1567 112.646 60.75C112.406 60.3367 112.286 59.87 112.286 59.35C112.286 58.8233 112.406 58.3567 112.646 57.95C112.886 57.5433 113.213 57.2267 113.626 57C114.04 56.7667 114.513 56.65 115.046 56.65C115.573 56.65 116.043 56.7667 116.456 57C116.876 57.2267 117.203 57.5433 117.436 57.95C117.676 58.35 117.796 58.8167 117.796 59.35C117.796 59.8767 117.676 60.3433 117.436 60.75C117.203 61.1567 116.876 61.4767 116.456 61.71C116.043 61.9433 115.573 62.06 115.046 62.06ZM115.046 61.22C115.386 61.22 115.69 61.1433 115.956 60.99C116.23 60.8367 116.443 60.62 116.596 60.34C116.75 60.0533 116.826 59.7233 116.826 59.35C116.826 58.97 116.75 58.6433 116.596 58.37C116.443 58.09 116.23 57.8733 115.956 57.72C115.69 57.5667 115.386 57.49 115.046 57.49C114.706 57.49 114.403 57.5667 114.136 57.72C113.87 57.8733 113.656 58.09 113.496 58.37C113.336 58.6433 113.256 58.97 113.256 59.35C113.256 59.7233 113.336 60.0533 113.496 60.34C113.656 60.62 113.87 60.8367 114.136 60.99C114.403 61.1433 114.706 61.22 115.046 61.22Z" fill="#DA2795"/>
<path d="M126.554 56.65C126.981 56.65 127.357 56.7333 127.684 56.9C128.011 57.0667 128.264 57.32 128.444 57.66C128.631 58 128.724 58.43 128.724 58.95V62H127.764V59.06C127.764 58.5467 127.644 58.16 127.404 57.9C127.164 57.64 126.827 57.51 126.394 57.51C126.074 57.51 125.794 57.5767 125.554 57.71C125.314 57.8433 125.127 58.04 124.994 58.3C124.867 58.56 124.804 58.8833 124.804 59.27V62H123.844V59.06C123.844 58.5467 123.724 58.16 123.484 57.9C123.251 57.64 122.914 57.51 122.474 57.51C122.161 57.51 121.884 57.5767 121.644 57.71C121.404 57.8433 121.217 58.04 121.084 58.3C120.951 58.56 120.884 58.8833 120.884 59.27V62H119.924V56.7H120.844V58.11L120.694 57.75C120.861 57.4033 121.117 57.1333 121.464 56.94C121.811 56.7467 122.214 56.65 122.674 56.65C123.181 56.65 123.617 56.7767 123.984 57.03C124.351 57.2767 124.591 57.6533 124.704 58.16L124.314 58C124.474 57.5933 124.754 57.2667 125.154 57.02C125.554 56.7733 126.021 56.65 126.554 56.65Z" fill="#DA2795"/>
<path d="M135.006 64C134.753 64 134.506 63.9567 134.266 63.87C134.026 63.79 133.819 63.67 133.646 63.51L134.056 62.79C134.189 62.9167 134.336 63.0133 134.496 63.08C134.656 63.1467 134.826 63.18 135.006 63.18C135.239 63.18 135.433 63.12 135.586 63C135.739 62.88 135.883 62.6667 136.016 62.36L136.346 61.63L136.446 61.51L138.526 56.7H139.466L136.896 62.53C136.743 62.9033 136.569 63.1967 136.376 63.41C136.189 63.6233 135.983 63.7733 135.756 63.86C135.529 63.9533 135.279 64 135.006 64ZM136.266 62.17L133.846 56.7H134.846L136.906 61.42L136.266 62.17Z" fill="#DA2795"/>
<path d="M143.285 62.06C142.752 62.06 142.279 61.9433 141.865 61.71C141.452 61.4767 141.125 61.1567 140.885 60.75C140.645 60.3367 140.525 59.87 140.525 59.35C140.525 58.8233 140.645 58.3567 140.885 57.95C141.125 57.5433 141.452 57.2267 141.865 57C142.279 56.7667 142.752 56.65 143.285 56.65C143.812 56.65 144.282 56.7667 144.695 57C145.115 57.2267 145.442 57.5433 145.675 57.95C145.915 58.35 146.035 58.8167 146.035 59.35C146.035 59.8767 145.915 60.3433 145.675 60.75C145.442 61.1567 145.115 61.4767 144.695 61.71C144.282 61.9433 143.812 62.06 143.285 62.06ZM143.285 61.22C143.625 61.22 143.929 61.1433 144.195 60.99C144.469 60.8367 144.682 60.62 144.835 60.34C144.989 60.0533 145.065 59.7233 145.065 59.35C145.065 58.97 144.989 58.6433 144.835 58.37C144.682 58.09 144.469 57.8733 144.195 57.72C143.929 57.5667 143.625 57.49 143.285 57.49C142.945 57.49 142.642 57.5667 142.375 57.72C142.109 57.8733 141.895 58.09 141.735 58.37C141.575 58.6433 141.495 58.97 141.495 59.35C141.495 59.7233 141.575 60.0533 141.735 60.34C141.895 60.62 142.109 60.8367 142.375 60.99C142.642 61.1433 142.945 61.22 143.285 61.22Z" fill="#DA2795"/>
<path d="M150.393 62.06C149.94 62.06 149.54 61.9767 149.193 61.81C148.853 61.6433 148.586 61.39 148.393 61.05C148.206 60.7033 148.113 60.27 148.113 59.75V56.7H149.073V59.64C149.073 60.16 149.196 60.55 149.443 60.81C149.696 61.07 150.05 61.2 150.503 61.2C150.836 61.2 151.126 61.1333 151.373 61C151.62 60.86 151.81 60.66 151.943 60.4C152.076 60.1333 152.143 59.8133 152.143 59.44V56.7H153.103V62H152.193V60.57L152.343 60.95C152.17 61.3033 151.91 61.5767 151.563 61.77C151.216 61.9633 150.826 62.06 150.393 62.06Z" fill="#DA2795"/>
<path d="M161.206 62.08C160.733 62.08 160.313 62.0033 159.946 61.85C159.58 61.6967 159.29 61.4833 159.076 61.21C158.863 60.9367 158.756 60.62 158.756 60.26C158.756 59.9467 158.826 59.66 158.966 59.4C159.106 59.14 159.33 58.89 159.636 58.65C159.943 58.4033 160.346 58.15 160.846 57.89C161.253 57.6767 161.57 57.49 161.796 57.33C162.03 57.17 162.193 57.02 162.286 56.88C162.386 56.7333 162.436 56.5767 162.436 56.41C162.436 56.1833 162.356 56 162.196 55.86C162.036 55.7133 161.806 55.64 161.506 55.64C161.193 55.64 160.946 55.72 160.766 55.88C160.593 56.0333 160.506 56.2367 160.506 56.49C160.506 56.6167 160.526 56.74 160.566 56.86C160.613 56.9733 160.693 57.1033 160.806 57.25C160.926 57.39 161.096 57.57 161.316 57.79L165.016 61.47L164.476 62.11L160.546 58.2C160.313 57.9667 160.13 57.76 159.996 57.58C159.863 57.3933 159.766 57.2133 159.706 57.04C159.646 56.8667 159.616 56.69 159.616 56.51C159.616 56.1967 159.693 55.9233 159.846 55.69C160.006 55.45 160.226 55.2667 160.506 55.14C160.793 55.0067 161.126 54.94 161.506 54.94C161.86 54.94 162.166 55 162.426 55.12C162.686 55.2333 162.886 55.4 163.026 55.62C163.173 55.8333 163.246 56.0933 163.246 56.4C163.246 56.6667 163.18 56.9133 163.046 57.14C162.92 57.3667 162.713 57.5867 162.426 57.8C162.14 58.0133 161.753 58.2433 161.266 58.49C160.866 58.6967 160.553 58.89 160.326 59.07C160.1 59.2433 159.936 59.4167 159.836 59.59C159.743 59.7633 159.696 59.9533 159.696 60.16C159.696 60.38 159.76 60.5767 159.886 60.75C160.02 60.9167 160.203 61.0467 160.436 61.14C160.676 61.2333 160.953 61.28 161.266 61.28C161.713 61.28 162.116 61.1833 162.476 60.99C162.836 60.7967 163.136 60.5067 163.376 60.12C163.623 59.7333 163.803 59.2533 163.916 58.68L164.686 58.93C164.553 59.6033 164.323 60.1733 163.996 60.64C163.676 61.1067 163.28 61.4633 162.806 61.71C162.333 61.9567 161.8 62.08 161.206 62.08Z" fill="#DA2795"/>
<path d="M172.177 62.06C171.644 62.06 171.231 61.9167 170.937 61.63C170.644 61.3433 170.497 60.9333 170.497 60.4V55.54H171.457V60.36C171.457 60.6467 171.527 60.8667 171.667 61.02C171.814 61.1733 172.021 61.25 172.287 61.25C172.587 61.25 172.837 61.1667 173.037 61L173.337 61.69C173.191 61.8167 173.014 61.91 172.807 61.97C172.607 62.03 172.397 62.06 172.177 62.06ZM169.597 57.49V56.7H172.977V57.49H169.597Z" fill="#DA2795"/>
<path d="M177.392 62.06C176.859 62.06 176.385 61.9433 175.972 61.71C175.559 61.4767 175.232 61.1567 174.992 60.75C174.752 60.3367 174.632 59.87 174.632 59.35C174.632 58.8233 174.752 58.3567 174.992 57.95C175.232 57.5433 175.559 57.2267 175.972 57C176.385 56.7667 176.859 56.65 177.392 56.65C177.919 56.65 178.389 56.7667 178.802 57C179.222 57.2267 179.549 57.5433 179.782 57.95C180.022 58.35 180.142 58.8167 180.142 59.35C180.142 59.8767 180.022 60.3433 179.782 60.75C179.549 61.1567 179.222 61.4767 178.802 61.71C178.389 61.9433 177.919 62.06 177.392 62.06ZM177.392 61.22C177.732 61.22 178.035 61.1433 178.302 60.99C178.575 60.8367 178.789 60.62 178.942 60.34C179.095 60.0533 179.172 59.7233 179.172 59.35C179.172 58.97 179.095 58.6433 178.942 58.37C178.789 58.09 178.575 57.8733 178.302 57.72C178.035 57.5667 177.732 57.49 177.392 57.49C177.052 57.49 176.749 57.5667 176.482 57.72C176.215 57.8733 176.002 58.09 175.842 58.37C175.682 58.6433 175.602 58.97 175.602 59.35C175.602 59.7233 175.682 60.0533 175.842 60.34C176.002 60.62 176.215 60.8367 176.482 60.99C176.749 61.1433 177.052 61.22 177.392 61.22Z" fill="#DA2795"/>
<path d="M185.985 64C185.732 64 185.485 63.9567 185.245 63.87C185.005 63.79 184.799 63.67 184.625 63.51L185.035 62.79C185.169 62.9167 185.315 63.0133 185.475 63.08C185.635 63.1467 185.805 63.18 185.985 63.18C186.219 63.18 186.412 63.12 186.565 63C186.719 62.88 186.862 62.6667 186.995 62.36L187.325 61.63L187.425 61.51L189.505 56.7H190.445L187.875 62.53C187.722 62.9033 187.549 63.1967 187.355 63.41C187.169 63.6233 186.962 63.7733 186.735 63.86C186.509 63.9533 186.259 64 185.985 64ZM187.245 62.17L184.825 56.7H185.825L187.885 61.42L187.245 62.17Z" fill="#DA2795"/>
<path d="M194.265 62.06C193.731 62.06 193.258 61.9433 192.845 61.71C192.431 61.4767 192.105 61.1567 191.865 60.75C191.625 60.3367 191.505 59.87 191.505 59.35C191.505 58.8233 191.625 58.3567 191.865 57.95C192.105 57.5433 192.431 57.2267 192.845 57C193.258 56.7667 193.731 56.65 194.265 56.65C194.791 56.65 195.261 56.7667 195.675 57C196.095 57.2267 196.421 57.5433 196.655 57.95C196.895 58.35 197.015 58.8167 197.015 59.35C197.015 59.8767 196.895 60.3433 196.655 60.75C196.421 61.1567 196.095 61.4767 195.675 61.71C195.261 61.9433 194.791 62.06 194.265 62.06ZM194.265 61.22C194.605 61.22 194.908 61.1433 195.175 60.99C195.448 60.8367 195.661 60.62 195.815 60.34C195.968 60.0533 196.045 59.7233 196.045 59.35C196.045 58.97 195.968 58.6433 195.815 58.37C195.661 58.09 195.448 57.8733 195.175 57.72C194.908 57.5667 194.605 57.49 194.265 57.49C193.925 57.49 193.621 57.5667 193.355 57.72C193.088 57.8733 192.875 58.09 192.715 58.37C192.555 58.6433 192.475 58.97 192.475 59.35C192.475 59.7233 192.555 60.0533 192.715 60.34C192.875 60.62 193.088 60.8367 193.355 60.99C193.621 61.1433 193.925 61.22 194.265 61.22Z" fill="#DA2795"/>
<path d="M201.372 62.06C200.919 62.06 200.519 61.9767 200.172 61.81C199.832 61.6433 199.566 61.39 199.372 61.05C199.186 60.7033 199.092 60.27 199.092 59.75V56.7H200.052V59.64C200.052 60.16 200.176 60.55 200.422 60.81C200.676 61.07 201.029 61.2 201.482 61.2C201.816 61.2 202.106 61.1333 202.352 61C202.599 60.86 202.789 60.66 202.922 60.4C203.056 60.1333 203.122 59.8133 203.122 59.44V56.7H204.082V62H203.172V60.57L203.322 60.95C203.149 61.3033 202.889 61.5767 202.542 61.77C202.196 61.9633 201.806 62.06 201.372 62.06Z" fill="#DA2795"/>
</svg>
