<svg width="252" height="184" viewBox="0 0 252 184" fill="none" xmlns="http://www.w3.org/2000/svg">
<mask id="path-1-outside-1_373_243" maskUnits="userSpaceOnUse" x="0" y="0" width="184" height="184" fill="black">
<rect fill="white" width="184" height="184"/>
<path d="M92 5C98.5268 5 103.93 37.1895 104.858 79.1406C146.81 80.0693 179 85.4731 179 92C179 96.8808 160.999 101.132 134.376 103.354C156.321 118.591 169.784 131.274 167.344 135.501C164.903 139.727 147.188 134.409 123.022 123.023C134.408 147.19 139.726 164.903 135.499 167.344C131.272 169.783 118.59 156.32 103.354 134.377C101.132 160.999 96.8808 179 92 179C85.4731 179 80.0693 146.81 79.1406 104.858C37.1895 103.93 5.00002 98.5268 5 92C5 87.1193 22.9998 82.8675 49.6211 80.6445C27.6785 65.4092 14.216 52.7281 16.6553 48.501C19.0956 44.2742 36.8102 49.5909 60.9766 60.9766C49.5911 36.8106 44.2728 19.0963 48.499 16.6553C52.7259 14.2149 65.4084 27.6781 80.6445 49.6221C82.8675 23.0002 87.1193 5 92 5Z"/>
</mask>
<path d="M92 5C98.5268 5 103.93 37.1895 104.858 79.1406C146.81 80.0693 179 85.4731 179 92C179 96.8808 160.999 101.132 134.376 103.354C156.321 118.591 169.784 131.274 167.344 135.501C164.903 139.727 147.188 134.409 123.022 123.023C134.408 147.19 139.726 164.903 135.499 167.344C131.272 169.783 118.59 156.32 103.354 134.377C101.132 160.999 96.8808 179 92 179C85.4731 179 80.0693 146.81 79.1406 104.858C37.1895 103.93 5.00002 98.5268 5 92C5 87.1193 22.9998 82.8675 49.6211 80.6445C27.6785 65.4092 14.216 52.7281 16.6553 48.501C19.0956 44.2742 36.8102 49.5909 60.9766 60.9766C49.5911 36.8106 44.2728 19.0963 48.499 16.6553C52.7259 14.2149 65.4084 27.6781 80.6445 49.6221C82.8675 23.0002 87.1193 5 92 5Z" fill="#DCFF82"/>
<path d="M104.858 79.1406L99.8596 79.2513L99.9655 84.0335L104.748 84.1394L104.858 79.1406ZM179 92H184H179ZM134.376 103.354L133.96 98.3718L120.099 99.5291L131.524 107.462L134.376 103.354ZM167.344 135.501L171.673 138.002L171.674 138.001L167.344 135.501ZM123.022 123.023L125.153 118.5L112.572 112.572L118.499 125.154L123.022 123.023ZM135.499 167.344L137.998 171.674L137.999 171.674L135.499 167.344ZM103.354 134.377L107.462 131.525L99.5291 120.101L98.3718 133.961L103.354 134.377ZM79.1406 104.858L84.1394 104.748L84.0335 99.9655L79.2513 99.8596L79.1406 104.858ZM5 92H0V92L5 92ZM49.6211 80.6445L50.0372 85.6272L63.8973 84.4698L52.4727 76.5375L49.6211 80.6445ZM16.6553 48.501L12.3251 46.001L12.3246 46.0019L16.6553 48.501ZM60.9766 60.9766L58.8456 65.4997L71.4275 71.4275L65.4997 58.8455L60.9766 60.9766ZM48.499 16.6553L45.999 12.3251L45.9982 12.3256L48.499 16.6553ZM80.6445 49.6221L76.5374 52.4737L84.4699 63.8984L85.6272 50.0381L80.6445 49.6221ZM92 5V10C90.6028 10 90.1196 9.13569 90.4929 9.59963C90.8092 9.99278 91.3386 10.8804 91.9765 12.5087C93.2321 15.7144 94.4802 20.6609 95.6006 27.185C97.8277 40.1527 99.3986 58.4246 99.8596 79.2513L104.858 79.1406L109.857 79.03C109.39 57.9055 107.795 39.1071 105.456 25.4923C104.294 18.7251 102.91 13.0023 101.288 8.86144C100.487 6.81652 99.5158 4.86162 98.2838 3.33052C97.1087 1.87023 95.0289 0 92 0V5ZM104.858 79.1406L104.748 84.1394C125.575 84.6004 143.847 86.1715 156.815 88.3988C163.339 89.5194 168.285 90.7675 171.491 92.0233C173.119 92.6612 174.007 93.1906 174.4 93.507C174.864 93.8804 174 93.3972 174 92H179H184C184 88.9711 182.13 86.8913 180.67 85.7162C179.138 84.4841 177.184 83.5133 175.139 82.7122C170.998 81.0901 165.275 79.7055 158.507 78.5431C144.892 76.2047 126.094 74.6095 104.969 74.1419L104.858 79.1406ZM179 92H174C174 90.9609 174.502 90.4052 174.506 90.4008C174.512 90.3944 174.445 90.467 174.253 90.6039C174.065 90.7385 173.795 90.9086 173.422 91.1069C171.852 91.9425 169.231 92.8834 165.463 93.8223C158.008 95.68 147.152 97.2703 133.96 98.3718L134.376 103.354L134.792 108.337C148.223 107.216 159.679 105.569 167.881 103.526C171.941 102.514 175.483 101.338 178.121 99.9344C179.434 99.2355 180.774 98.3498 181.843 97.1953C182.936 96.0155 184 94.2593 184 92H179ZM134.376 103.354L131.524 107.462C142.398 115.012 151.004 121.817 156.531 127.153C159.325 129.851 161.125 131.976 162.067 133.485C162.29 133.843 162.439 134.126 162.535 134.336C162.632 134.551 162.654 134.647 162.652 134.639C162.651 134.633 162.494 133.901 163.014 133.001L167.344 135.501L171.674 138.001C172.804 136.044 172.76 133.991 172.404 132.423C172.055 130.889 171.337 129.452 170.549 128.19C168.968 125.656 166.488 122.866 163.477 119.959C157.397 114.089 148.298 106.934 137.228 99.2474L134.376 103.354ZM167.344 135.501L163.014 133C163.534 132.1 164.246 131.87 164.251 131.869C164.26 131.866 164.165 131.895 163.931 131.918C163.701 131.941 163.381 131.953 162.959 131.938C161.182 131.877 158.441 131.381 154.709 130.31C147.324 128.192 137.128 124.142 125.153 118.5L123.022 123.023L120.891 127.547C133.083 133.29 143.827 137.592 151.951 139.923C155.973 141.077 159.629 141.829 162.615 141.932C164.101 141.984 165.705 141.887 167.208 141.422C168.744 140.946 170.543 139.958 171.673 138.002L167.344 135.501ZM123.022 123.023L118.499 125.154C124.141 137.129 128.191 147.325 130.309 154.709C131.38 158.442 131.876 161.182 131.937 162.96C131.951 163.381 131.939 163.701 131.917 163.931C131.894 164.165 131.865 164.26 131.867 164.251C131.869 164.245 132.099 163.533 132.999 163.014L135.499 167.344L137.999 171.674C139.956 170.544 140.944 168.745 141.42 167.209C141.885 165.706 141.982 164.102 141.931 162.615C141.828 159.63 141.075 155.974 139.922 151.952C137.591 143.828 133.289 133.084 127.546 120.892L123.022 123.023ZM135.499 167.344L133 163.013C133.9 162.494 134.632 162.651 134.637 162.652C134.646 162.654 134.549 162.632 134.335 162.535C134.124 162.439 133.841 162.29 133.483 162.066C131.975 161.124 129.849 159.325 127.152 156.531C121.816 151.004 115.011 142.399 107.462 131.525L103.354 134.377L99.2474 137.229C106.934 148.299 114.088 157.396 119.958 163.477C122.864 166.487 125.654 168.967 128.188 170.549C129.45 171.337 130.887 172.055 132.421 172.403C133.989 172.76 136.042 172.804 137.998 171.674L135.499 167.344ZM103.354 134.377L98.3718 133.961C97.2703 147.153 95.68 158.008 93.8223 165.463C92.8834 169.231 91.9425 171.852 91.1069 173.422C90.9086 173.795 90.7385 174.065 90.6039 174.253C90.467 174.445 90.3944 174.512 90.4008 174.506C90.4052 174.502 90.9609 174 92 174V179V184C94.2593 184 96.0155 182.936 97.1953 181.843C98.3497 180.774 99.2355 179.434 99.9344 178.121C101.338 175.484 102.514 171.941 103.526 167.881C105.569 159.68 107.216 148.223 108.337 134.793L103.354 134.377ZM92 179V174C93.3972 174 93.8804 174.864 93.507 174.4C93.1906 174.007 92.6612 173.119 92.0233 171.491C90.7675 168.285 89.5194 163.339 88.3988 156.815C86.1715 143.847 84.6004 125.575 84.1394 104.748L79.1406 104.858L74.1419 104.969C74.6095 126.094 76.2047 144.892 78.5431 158.507C79.7055 165.275 81.0901 170.998 82.7122 175.139C83.5133 177.184 84.4841 179.138 85.7162 180.67C86.8913 182.13 88.9711 184 92 184V179ZM79.1406 104.858L79.2513 99.8596C58.4246 99.3986 40.1527 97.8277 27.185 95.6006C20.6609 94.4802 15.7144 93.2321 12.5088 91.9765C10.8804 91.3386 9.99278 90.8092 9.59964 90.4929C9.13569 90.1196 9.99999 90.6028 10 92L5 92L0 92C1.14441e-05 95.0289 1.87025 97.1087 3.33054 98.2838C4.86163 99.5158 6.81653 100.487 8.86146 101.288C13.0024 102.91 18.7251 104.294 25.4923 105.456C39.1071 107.795 57.9055 109.39 79.03 109.857L79.1406 104.858ZM5 92H10C10 93.039 9.49824 93.5947 9.49419 93.599C9.48824 93.6055 9.55559 93.5328 9.74688 93.3959C9.93487 93.2613 10.2054 93.0912 10.5779 92.8929C12.1478 92.0572 14.7691 91.1162 18.5367 90.1772C25.9912 88.3193 36.8458 86.7287 50.0372 85.6272L49.6211 80.6445L49.205 75.6619C35.775 76.7833 24.3191 78.4301 16.1184 80.474C12.0584 81.4859 8.51596 82.6619 5.87898 84.0657C4.56596 84.7646 3.22564 85.6504 2.15665 86.8049C1.06426 87.9846 0 89.7408 0 92H5ZM49.6211 80.6445L52.4727 76.5375C41.5998 68.9881 32.9948 62.1836 27.4678 56.8476C24.6744 54.1507 22.8746 52.0251 21.9327 50.5164C21.7093 50.1584 21.56 49.8758 21.4645 49.6652C21.3672 49.4509 21.3452 49.3543 21.3471 49.3628C21.3484 49.3683 21.5052 50.1002 20.9859 51L16.6553 48.501L12.3246 46.0019C11.1955 47.9585 11.2395 50.0114 11.5958 51.5791C11.9445 53.1132 12.6624 54.5504 13.4501 55.8121C15.0321 58.3461 17.5119 61.1356 20.5221 64.0418C26.6022 69.9119 35.6998 77.0657 46.7694 84.7516L49.6211 80.6445ZM16.6553 48.501L20.9854 51.001C20.4659 51.9007 19.7536 52.1311 19.748 52.1328C19.7396 52.1354 19.8343 52.1062 20.0684 52.0832C20.2986 52.0607 20.6179 52.0485 21.0396 52.063C22.8171 52.1242 25.5578 52.6199 29.2902 53.6903C36.675 55.8084 46.8708 59.858 58.8456 65.4997L60.9766 60.9766L63.1076 56.4534C50.916 50.7095 40.1713 46.408 32.0471 44.0779C28.025 42.9243 24.3691 42.1717 21.3836 42.069C19.897 42.0178 18.2933 42.1148 16.7903 42.5802C15.2544 43.0557 13.4547 44.0445 12.3251 46.001L16.6553 48.501ZM60.9766 60.9766L65.4997 58.8455C59.858 46.8709 55.808 36.6752 53.6896 29.2903C52.6189 25.5579 52.123 22.8171 52.0616 21.0395C52.0471 20.6178 52.0592 20.2984 52.0817 20.0682C52.1046 19.834 52.1339 19.7393 52.1313 19.7476C52.1296 19.753 51.8995 20.4653 50.9998 20.9849L48.499 16.6553L45.9982 12.3256C44.042 13.4555 43.0536 15.2553 42.5783 16.7912C42.1132 18.2942 42.0163 19.8978 42.0676 21.3844C42.1706 24.3699 42.9235 28.0258 44.0772 32.0478C46.4077 40.1718 50.7097 50.9163 56.4534 63.1076L60.9766 60.9766ZM48.499 16.6553L50.999 20.9854C50.0992 21.5049 49.367 21.3482 49.3613 21.3469C49.3527 21.3449 49.4493 21.367 49.6635 21.4642C49.8741 21.5597 50.1567 21.7089 50.5147 21.9324C52.0234 22.8742 54.1491 24.674 56.8462 27.4675C62.1827 32.9946 68.9877 41.6001 76.5374 52.4737L80.6445 49.6221L84.7516 46.7704C77.0652 35.7001 69.9109 26.602 64.0403 20.5216C61.1339 17.5114 58.3442 15.0314 55.8101 13.4495C54.5482 12.6618 53.1109 11.9439 51.5766 11.5954C50.0087 11.2392 47.9556 11.1955 45.999 12.3251L48.499 16.6553ZM80.6445 49.6221L85.6272 50.0381C86.7287 36.8465 88.3193 25.9917 90.1772 18.537C91.1162 14.7693 92.0572 12.1478 92.8929 10.5779C93.0912 10.2054 93.2613 9.93489 93.3959 9.74689C93.5328 9.5556 93.6055 9.48824 93.5991 9.49418C93.5947 9.49822 93.039 10 92 10V5V0C89.7408 0 87.9846 1.06428 86.8048 2.1567C85.6504 3.22571 84.7645 4.56605 84.0656 5.8791C82.6619 8.51613 81.4859 12.0586 80.474 16.1187C78.4301 24.3196 76.7833 35.7757 75.6619 49.206L80.6445 49.6221Z" fill="#DA2795" mask="url(#path-1-outside-1_373_243)"/>
<path d="M113.883 56.9L114.227 58.9947L117.667 79.9547L118.144 82.86H113.308L112.599 81.5465C110.15 77.005 107.325 73.2894 104.145 70.358L104.116 70.3307C101.102 67.4604 98.1442 66.2203 95.1998 66.2203C93.1351 66.2204 91.2554 66.8847 89.4879 68.3072L89.482 68.3121C87.8332 69.6312 86.3429 71.8344 85.1578 75.192L85.1539 75.2027C84.0022 78.418 83.3805 82.5905 83.3805 87.8004C83.3805 94.6004 84.1863 100.352 85.7369 105.104C87.3271 109.977 89.232 113.441 91.3424 115.689C93.5429 118.033 95.3837 118.82 96.8805 118.82C97.683 118.82 98.1285 118.662 98.3707 118.518C98.7816 118.217 99.29 117.779 99.9 117.178V101.423L94.36 100.246L92.3805 99.8238V94.9H125.22V99.5396L123.588 100.144L120.9 101.139V113.14H124.5V117.725L122.937 118.358C118.107 120.312 113.499 121.867 109.115 123.018L109.1 123.022L109.087 123.025C104.609 124.144 99.9237 124.7 95.0396 124.7C87.8826 124.7 81.6021 123.48 76.2818 120.935L76.2721 120.93C71.0188 118.39 66.9277 114.765 64.0963 110.046L64.0894 110.035C61.2689 105.275 59.9 99.7815 59.9 93.6402C59.9 87.0598 61.4075 81.1831 64.5045 76.0992C67.5918 71.0314 71.9344 67.1397 77.4605 64.4342C82.9787 61.6792 89.2871 60.3404 96.3199 60.3404C99.7579 60.3404 103.835 60.7442 108.53 61.5279L108.885 59.0465L109.192 56.9H113.883Z" fill="white" stroke="#DA2795" stroke-width="5"/>
<path d="M139.4 57.2C136.7 57.2 134.167 56.9167 131.8 56.35C129.433 55.7833 127.4 54.9333 125.7 53.8L129.5 46.1C130.567 46.9333 131.917 47.5833 133.55 48.05C135.217 48.55 136.783 48.8 138.25 48.8C140.583 48.8 142.25 48.3 143.25 47.3C144.25 46.3333 144.75 44.9333 144.75 43.1V40.8L145.25 32.3L145.3 23.8V19.65H156.05V41.55C156.05 46.85 154.583 50.7833 151.65 53.35C148.717 55.9167 144.633 57.2 139.4 57.2ZM137.2 45.5C134.9 45.5 132.75 44.9667 130.75 43.9C128.75 42.8 127.133 41.2667 125.9 39.3C124.667 37.3333 124.05 35 124.05 32.3C124.05 29.6 124.667 27.2667 125.9 25.3C127.133 23.3333 128.75 21.8167 130.75 20.75C132.75 19.6833 134.9 19.15 137.2 19.15C139.567 19.15 141.5 19.6167 143 20.55C144.533 21.4833 145.667 22.9333 146.4 24.9C147.133 26.8333 147.5 29.3 147.5 32.3C147.5 35.3 147.133 37.7833 146.4 39.75C145.667 41.6833 144.533 43.1333 143 44.1C141.5 45.0333 139.567 45.5 137.2 45.5ZM140.2 36.7C141.1 36.7 141.9 36.5167 142.6 36.15C143.3 35.7833 143.85 35.2667 144.25 34.6C144.65 33.9333 144.85 33.1667 144.85 32.3C144.85 31.4 144.65 30.6333 144.25 30C143.85 29.3333 143.3 28.8333 142.6 28.5C141.9 28.1333 141.1 27.95 140.2 27.95C139.333 27.95 138.533 28.1333 137.8 28.5C137.1 28.8333 136.533 29.3333 136.1 30C135.7 30.6333 135.5 31.4 135.5 32.3C135.5 33.1667 135.7 33.9333 136.1 34.6C136.533 35.2667 137.1 35.7833 137.8 36.15C138.533 36.5167 139.333 36.7 140.2 36.7Z" fill="#DA2795"/>
<path d="M158.547 47V19.65H169.847V47H158.547ZM164.197 17.45C162.13 17.45 160.48 16.9 159.247 15.8C158.014 14.7 157.397 13.3333 157.397 11.7C157.397 10.0667 158.014 8.7 159.247 7.6C160.48 6.5 162.13 5.95 164.197 5.95C166.264 5.95 167.914 6.46666 169.147 7.5C170.38 8.53333 170.997 9.86666 170.997 11.5C170.997 13.2333 170.38 14.6667 169.147 15.8C167.914 16.9 166.264 17.45 164.197 17.45Z" fill="#DA2795"/>
<path d="M173.605 47V21C173.605 17.4667 174.655 14.65 176.755 12.55C178.889 10.45 181.905 9.4 185.805 9.4C187.005 9.4 188.205 9.51666 189.405 9.75C190.639 9.95 191.672 10.2833 192.505 10.75L189.805 18.6C189.439 18.4333 189.039 18.2833 188.605 18.15C188.172 18.0167 187.722 17.95 187.255 17.95C186.455 17.95 185.805 18.2 185.305 18.7C184.805 19.2 184.555 20 184.555 21.1V22.4L184.905 27.05V47H173.605ZM169.855 29.4V21.15H190.505V29.4H169.855Z" fill="#DA2795"/>
<path d="M204.345 47.5C200.578 47.5 197.645 46.6 195.545 44.8C193.445 42.9667 192.395 40.1667 192.395 36.4V13.5H203.695V36.3C203.695 37.1333 203.911 37.7833 204.345 38.25C204.811 38.7167 205.378 38.95 206.045 38.95C207.011 38.95 207.861 38.7 208.595 38.2L211.295 46.05C210.428 46.55 209.378 46.9167 208.145 47.15C206.945 47.3833 205.678 47.5 204.345 47.5ZM188.645 29.4V21.15H209.295V29.4H188.645Z" fill="#DA2795"/>
<path d="M224.354 47.5C220.588 47.5 217.654 46.6 215.554 44.8C213.454 42.9667 212.404 40.1667 212.404 36.4V13.5H223.704V36.3C223.704 37.1333 223.921 37.7833 224.354 38.25C224.821 38.7167 225.388 38.95 226.054 38.95C227.021 38.95 227.871 38.7 228.604 38.2L231.304 46.05C230.438 46.55 229.388 46.9167 228.154 47.15C226.954 47.3833 225.688 47.5 224.354 47.5ZM208.654 29.4V21.15H229.304V29.4H208.654Z" fill="#DA2795"/>
<path d="M244.364 47.5C240.597 47.5 237.664 46.6 235.564 44.8C233.464 42.9667 232.414 40.1667 232.414 36.4V13.5H243.714V36.3C243.714 37.1333 243.931 37.7833 244.364 38.25C244.831 38.7167 245.397 38.95 246.064 38.95C247.031 38.95 247.881 38.7 248.614 38.2L251.314 46.05C250.447 46.55 249.397 46.9167 248.164 47.15C246.964 47.3833 245.697 47.5 244.364 47.5ZM228.664 29.4V21.15H249.314V29.4H228.664Z" fill="#DA2795"/>
<path d="M150.807 66V60.23C150.807 59.71 150.957 59.2967 151.257 58.99C151.563 58.6767 151.997 58.52 152.557 58.52C152.763 58.52 152.96 58.5467 153.147 58.6C153.34 58.6467 153.503 58.7233 153.637 58.83L153.347 59.56C153.247 59.48 153.133 59.42 153.007 59.38C152.88 59.3333 152.747 59.31 152.607 59.31C152.327 59.31 152.113 59.39 151.967 59.55C151.82 59.7033 151.747 59.9333 151.747 60.24V60.95L151.767 61.39V66H150.807ZM149.907 61.49V60.7H153.287V61.49H149.907Z" fill="#DA2795"/>
<path d="M154.992 66V60.7H155.912V62.14L155.822 61.78C155.969 61.4133 156.215 61.1333 156.562 60.94C156.909 60.7467 157.335 60.65 157.842 60.65V61.58C157.802 61.5733 157.762 61.57 157.722 61.57C157.689 61.57 157.655 61.57 157.622 61.57C157.109 61.57 156.702 61.7233 156.402 62.03C156.102 62.3367 155.952 62.78 155.952 63.36V66H154.992Z" fill="#DA2795"/>
<path d="M162.046 66.06C161.513 66.06 161.04 65.9433 160.626 65.71C160.213 65.4767 159.886 65.1567 159.646 64.75C159.406 64.3367 159.286 63.87 159.286 63.35C159.286 62.8233 159.406 62.3567 159.646 61.95C159.886 61.5433 160.213 61.2267 160.626 61C161.04 60.7667 161.513 60.65 162.046 60.65C162.573 60.65 163.043 60.7667 163.456 61C163.876 61.2267 164.203 61.5433 164.436 61.95C164.676 62.35 164.796 62.8167 164.796 63.35C164.796 63.8767 164.676 64.3433 164.436 64.75C164.203 65.1567 163.876 65.4767 163.456 65.71C163.043 65.9433 162.573 66.06 162.046 66.06ZM162.046 65.22C162.386 65.22 162.69 65.1433 162.956 64.99C163.23 64.8367 163.443 64.62 163.596 64.34C163.75 64.0533 163.826 63.7233 163.826 63.35C163.826 62.97 163.75 62.6433 163.596 62.37C163.443 62.09 163.23 61.8733 162.956 61.72C162.69 61.5667 162.386 61.49 162.046 61.49C161.706 61.49 161.403 61.5667 161.136 61.72C160.87 61.8733 160.656 62.09 160.496 62.37C160.336 62.6433 160.256 62.97 160.256 63.35C160.256 63.7233 160.336 64.0533 160.496 64.34C160.656 64.62 160.87 64.8367 161.136 64.99C161.403 65.1433 161.706 65.22 162.046 65.22Z" fill="#DA2795"/>
<path d="M173.554 60.65C173.981 60.65 174.357 60.7333 174.684 60.9C175.011 61.0667 175.264 61.32 175.444 61.66C175.631 62 175.724 62.43 175.724 62.95V66H174.764V63.06C174.764 62.5467 174.644 62.16 174.404 61.9C174.164 61.64 173.827 61.51 173.394 61.51C173.074 61.51 172.794 61.5767 172.554 61.71C172.314 61.8433 172.127 62.04 171.994 62.3C171.867 62.56 171.804 62.8833 171.804 63.27V66H170.844V63.06C170.844 62.5467 170.724 62.16 170.484 61.9C170.251 61.64 169.914 61.51 169.474 61.51C169.161 61.51 168.884 61.5767 168.644 61.71C168.404 61.8433 168.217 62.04 168.084 62.3C167.951 62.56 167.884 62.8833 167.884 63.27V66H166.924V60.7H167.844V62.11L167.694 61.75C167.861 61.4033 168.117 61.1333 168.464 60.94C168.811 60.7467 169.214 60.65 169.674 60.65C170.181 60.65 170.617 60.7767 170.984 61.03C171.351 61.2767 171.591 61.6533 171.704 62.16L171.314 62C171.474 61.5933 171.754 61.2667 172.154 61.02C172.554 60.7733 173.021 60.65 173.554 60.65Z" fill="#DA2795"/>
<path d="M182.006 68C181.753 68 181.506 67.9567 181.266 67.87C181.026 67.79 180.819 67.67 180.646 67.51L181.056 66.79C181.189 66.9167 181.336 67.0133 181.496 67.08C181.656 67.1467 181.826 67.18 182.006 67.18C182.239 67.18 182.433 67.12 182.586 67C182.739 66.88 182.883 66.6667 183.016 66.36L183.346 65.63L183.446 65.51L185.526 60.7H186.466L183.896 66.53C183.743 66.9033 183.569 67.1967 183.376 67.41C183.189 67.6233 182.983 67.7733 182.756 67.86C182.529 67.9533 182.279 68 182.006 68ZM183.266 66.17L180.846 60.7H181.846L183.906 65.42L183.266 66.17Z" fill="#DA2795"/>
<path d="M190.285 66.06C189.752 66.06 189.279 65.9433 188.865 65.71C188.452 65.4767 188.125 65.1567 187.885 64.75C187.645 64.3367 187.525 63.87 187.525 63.35C187.525 62.8233 187.645 62.3567 187.885 61.95C188.125 61.5433 188.452 61.2267 188.865 61C189.279 60.7667 189.752 60.65 190.285 60.65C190.812 60.65 191.282 60.7667 191.695 61C192.115 61.2267 192.442 61.5433 192.675 61.95C192.915 62.35 193.035 62.8167 193.035 63.35C193.035 63.8767 192.915 64.3433 192.675 64.75C192.442 65.1567 192.115 65.4767 191.695 65.71C191.282 65.9433 190.812 66.06 190.285 66.06ZM190.285 65.22C190.625 65.22 190.929 65.1433 191.195 64.99C191.469 64.8367 191.682 64.62 191.835 64.34C191.989 64.0533 192.065 63.7233 192.065 63.35C192.065 62.97 191.989 62.6433 191.835 62.37C191.682 62.09 191.469 61.8733 191.195 61.72C190.929 61.5667 190.625 61.49 190.285 61.49C189.945 61.49 189.642 61.5667 189.375 61.72C189.109 61.8733 188.895 62.09 188.735 62.37C188.575 62.6433 188.495 62.97 188.495 63.35C188.495 63.7233 188.575 64.0533 188.735 64.34C188.895 64.62 189.109 64.8367 189.375 64.99C189.642 65.1433 189.945 65.22 190.285 65.22Z" fill="#DA2795"/>
<path d="M197.393 66.06C196.94 66.06 196.54 65.9767 196.193 65.81C195.853 65.6433 195.586 65.39 195.393 65.05C195.206 64.7033 195.113 64.27 195.113 63.75V60.7H196.073V63.64C196.073 64.16 196.196 64.55 196.443 64.81C196.696 65.07 197.05 65.2 197.503 65.2C197.836 65.2 198.126 65.1333 198.373 65C198.62 64.86 198.81 64.66 198.943 64.4C199.076 64.1333 199.143 63.8133 199.143 63.44V60.7H200.103V66H199.193V64.57L199.343 64.95C199.17 65.3033 198.91 65.5767 198.563 65.77C198.216 65.9633 197.826 66.06 197.393 66.06Z" fill="#DA2795"/>
<path d="M208.206 66.08C207.733 66.08 207.313 66.0033 206.946 65.85C206.58 65.6967 206.29 65.4833 206.076 65.21C205.863 64.9367 205.756 64.62 205.756 64.26C205.756 63.9467 205.826 63.66 205.966 63.4C206.106 63.14 206.33 62.89 206.636 62.65C206.943 62.4033 207.346 62.15 207.846 61.89C208.253 61.6767 208.57 61.49 208.796 61.33C209.03 61.17 209.193 61.02 209.286 60.88C209.386 60.7333 209.436 60.5767 209.436 60.41C209.436 60.1833 209.356 60 209.196 59.86C209.036 59.7133 208.806 59.64 208.506 59.64C208.193 59.64 207.946 59.72 207.766 59.88C207.593 60.0333 207.506 60.2367 207.506 60.49C207.506 60.6167 207.526 60.74 207.566 60.86C207.613 60.9733 207.693 61.1033 207.806 61.25C207.926 61.39 208.096 61.57 208.316 61.79L212.016 65.47L211.476 66.11L207.546 62.2C207.313 61.9667 207.13 61.76 206.996 61.58C206.863 61.3933 206.766 61.2133 206.706 61.04C206.646 60.8667 206.616 60.69 206.616 60.51C206.616 60.1967 206.693 59.9233 206.846 59.69C207.006 59.45 207.226 59.2667 207.506 59.14C207.793 59.0067 208.126 58.94 208.506 58.94C208.86 58.94 209.166 59 209.426 59.12C209.686 59.2333 209.886 59.4 210.026 59.62C210.173 59.8333 210.246 60.0933 210.246 60.4C210.246 60.6667 210.18 60.9133 210.046 61.14C209.92 61.3667 209.713 61.5867 209.426 61.8C209.14 62.0133 208.753 62.2433 208.266 62.49C207.866 62.6967 207.553 62.89 207.326 63.07C207.1 63.2433 206.936 63.4167 206.836 63.59C206.743 63.7633 206.696 63.9533 206.696 64.16C206.696 64.38 206.76 64.5767 206.886 64.75C207.02 64.9167 207.203 65.0467 207.436 65.14C207.676 65.2333 207.953 65.28 208.266 65.28C208.713 65.28 209.116 65.1833 209.476 64.99C209.836 64.7967 210.136 64.5067 210.376 64.12C210.623 63.7333 210.803 63.2533 210.916 62.68L211.686 62.93C211.553 63.6033 211.323 64.1733 210.996 64.64C210.676 65.1067 210.28 65.4633 209.806 65.71C209.333 65.9567 208.8 66.08 208.206 66.08Z" fill="#DA2795"/>
<path d="M219.177 66.06C218.644 66.06 218.231 65.9167 217.937 65.63C217.644 65.3433 217.497 64.9333 217.497 64.4V59.54H218.457V64.36C218.457 64.6467 218.527 64.8667 218.667 65.02C218.814 65.1733 219.021 65.25 219.287 65.25C219.587 65.25 219.837 65.1667 220.037 65L220.337 65.69C220.191 65.8167 220.014 65.91 219.807 65.97C219.607 66.03 219.397 66.06 219.177 66.06ZM216.597 61.49V60.7H219.977V61.49H216.597Z" fill="#DA2795"/>
<path d="M224.392 66.06C223.859 66.06 223.385 65.9433 222.972 65.71C222.559 65.4767 222.232 65.1567 221.992 64.75C221.752 64.3367 221.632 63.87 221.632 63.35C221.632 62.8233 221.752 62.3567 221.992 61.95C222.232 61.5433 222.559 61.2267 222.972 61C223.385 60.7667 223.859 60.65 224.392 60.65C224.919 60.65 225.389 60.7667 225.802 61C226.222 61.2267 226.549 61.5433 226.782 61.95C227.022 62.35 227.142 62.8167 227.142 63.35C227.142 63.8767 227.022 64.3433 226.782 64.75C226.549 65.1567 226.222 65.4767 225.802 65.71C225.389 65.9433 224.919 66.06 224.392 66.06ZM224.392 65.22C224.732 65.22 225.035 65.1433 225.302 64.99C225.575 64.8367 225.789 64.62 225.942 64.34C226.095 64.0533 226.172 63.7233 226.172 63.35C226.172 62.97 226.095 62.6433 225.942 62.37C225.789 62.09 225.575 61.8733 225.302 61.72C225.035 61.5667 224.732 61.49 224.392 61.49C224.052 61.49 223.749 61.5667 223.482 61.72C223.215 61.8733 223.002 62.09 222.842 62.37C222.682 62.6433 222.602 62.97 222.602 63.35C222.602 63.7233 222.682 64.0533 222.842 64.34C223.002 64.62 223.215 64.8367 223.482 64.99C223.749 65.1433 224.052 65.22 224.392 65.22Z" fill="#DA2795"/>
<path d="M232.985 68C232.732 68 232.485 67.9567 232.245 67.87C232.005 67.79 231.799 67.67 231.625 67.51L232.035 66.79C232.169 66.9167 232.315 67.0133 232.475 67.08C232.635 67.1467 232.805 67.18 232.985 67.18C233.219 67.18 233.412 67.12 233.565 67C233.719 66.88 233.862 66.6667 233.995 66.36L234.325 65.63L234.425 65.51L236.505 60.7H237.445L234.875 66.53C234.722 66.9033 234.549 67.1967 234.355 67.41C234.169 67.6233 233.962 67.7733 233.735 67.86C233.509 67.9533 233.259 68 232.985 68ZM234.245 66.17L231.825 60.7H232.825L234.885 65.42L234.245 66.17Z" fill="#DA2795"/>
<path d="M241.265 66.06C240.731 66.06 240.258 65.9433 239.845 65.71C239.431 65.4767 239.105 65.1567 238.865 64.75C238.625 64.3367 238.505 63.87 238.505 63.35C238.505 62.8233 238.625 62.3567 238.865 61.95C239.105 61.5433 239.431 61.2267 239.845 61C240.258 60.7667 240.731 60.65 241.265 60.65C241.791 60.65 242.261 60.7667 242.675 61C243.095 61.2267 243.421 61.5433 243.655 61.95C243.895 62.35 244.015 62.8167 244.015 63.35C244.015 63.8767 243.895 64.3433 243.655 64.75C243.421 65.1567 243.095 65.4767 242.675 65.71C242.261 65.9433 241.791 66.06 241.265 66.06ZM241.265 65.22C241.605 65.22 241.908 65.1433 242.175 64.99C242.448 64.8367 242.661 64.62 242.815 64.34C242.968 64.0533 243.045 63.7233 243.045 63.35C243.045 62.97 242.968 62.6433 242.815 62.37C242.661 62.09 242.448 61.8733 242.175 61.72C241.908 61.5667 241.605 61.49 241.265 61.49C240.925 61.49 240.621 61.5667 240.355 61.72C240.088 61.8733 239.875 62.09 239.715 62.37C239.555 62.6433 239.475 62.97 239.475 63.35C239.475 63.7233 239.555 64.0533 239.715 64.34C239.875 64.62 240.088 64.8367 240.355 64.99C240.621 65.1433 240.925 65.22 241.265 65.22Z" fill="#DA2795"/>
<path d="M248.372 66.06C247.919 66.06 247.519 65.9767 247.172 65.81C246.832 65.6433 246.566 65.39 246.372 65.05C246.186 64.7033 246.092 64.27 246.092 63.75V60.7H247.052V63.64C247.052 64.16 247.176 64.55 247.422 64.81C247.676 65.07 248.029 65.2 248.482 65.2C248.816 65.2 249.106 65.1333 249.352 65C249.599 64.86 249.789 64.66 249.922 64.4C250.056 64.1333 250.122 63.8133 250.122 63.44V60.7H251.082V66H250.172V64.57L250.322 64.95C250.149 65.3033 249.889 65.5767 249.542 65.77C249.196 65.9633 248.806 66.06 248.372 66.06Z" fill="#DA2795"/>
</svg>
