<svg width="30" height="31" viewBox="0 0 30 31" fill="none" xmlns="http://www.w3.org/2000/svg">
<path d="M23.9515 1.23378L24.1215 2.26796L25.5463 10.9457L25.7816 12.3803H23.4261L23.0765 11.7318C22.0713 9.86802 20.9144 8.34823 19.6166 7.15175L19.6088 7.14491L19.6019 7.13808C18.3819 5.97618 17.2043 5.49074 16.0482 5.49062C15.2414 5.49062 14.5064 5.74894 13.808 6.31093L13.8051 6.31288C13.161 6.82815 12.5606 7.70392 12.0775 9.07265L12.0756 9.07753C11.6089 10.3802 11.3529 12.0831 11.3529 14.226C11.3529 17.0265 11.6849 19.3861 12.3187 21.3285C12.9721 23.3307 13.7496 24.7345 14.5961 25.6361C15.487 26.5851 16.2 26.8695 16.7435 26.8695C17.0351 26.8695 17.1816 26.8145 17.2484 26.7777C17.3946 26.6701 17.5761 26.5154 17.7943 26.3041V20.0277L15.6586 19.5736L14.681 19.3656V16.9662H28.6752V19.225L27.8705 19.5238L26.8871 19.8871V24.518H28.3773V26.7494L27.6058 27.0619C25.5996 27.8734 23.6833 28.5205 21.8588 28.9994L21.8451 29.0033C19.9746 29.4709 18.0189 29.7025 15.9818 29.7025C12.9965 29.7025 10.3649 29.1936 8.12927 28.1244L8.12439 28.1215C5.91772 27.0545 4.19317 25.5281 2.99939 23.5385L2.99646 23.5326C1.80804 21.5271 1.23376 19.2168 1.23376 16.6439C1.23377 13.8884 1.86572 11.4187 3.16931 9.2787C4.46821 7.14655 6.29544 5.50937 8.6156 4.37343C10.9318 3.2173 13.5746 2.65863 16.5111 2.65858C17.899 2.65858 19.5313 2.81659 21.3978 3.1205L21.517 2.29335L21.6683 1.23378H23.9515Z" fill="white" stroke="#DA2795" stroke-width="2.46815"/>
</svg>
